<svg width="32" height="32" viewBox="0 0 32 32" fill="none" xmlns="http://www.w3.org/2000/svg">
<path d="M20.1028 25.9242C19.8996 25.9242 19.736 25.879 19.6118 25.7887C19.4989 25.6984 19.4312 25.5742 19.4086 25.4162C19.3861 25.2582 19.4199 25.0832 19.5102 24.8913L24.1326 14.4275C24.2342 14.1905 24.364 14.0212 24.522 13.9196C24.68 13.8067 24.855 13.7502 25.0469 13.7502C25.2388 13.7502 25.4081 13.8067 25.5548 13.9196C25.7129 14.0212 25.8483 14.1905 25.9612 14.4275L30.5836 24.8913C30.6739 25.0832 30.7077 25.2638 30.6852 25.4331C30.6739 25.5912 30.6118 25.7153 30.4989 25.8056C30.386 25.8847 30.228 25.9242 30.0248 25.9242C29.7991 25.9242 29.6185 25.8677 29.483 25.7548C29.3476 25.6307 29.229 25.4557 29.1274 25.23L27.9253 22.4193L28.6534 22.8257H21.4066L22.1346 22.4193L20.9325 25.23C20.8309 25.4783 20.718 25.6589 20.5938 25.7718C20.4697 25.8734 20.306 25.9242 20.1028 25.9242ZM25.013 15.6466L22.3717 21.8944L21.9653 21.5388H28.0946L27.7052 21.8944L25.0469 15.6466H25.013Z" fill="#4B504E"/>
<path d="M3.29699 26C2.96319 26 2.6943 25.9258 2.49031 25.7775C2.30487 25.6291 2.1936 25.4251 2.15651 25.1655C2.11942 24.9059 2.17506 24.6185 2.32341 24.3032L9.91729 7.11266C10.0842 6.72323 10.2975 6.44506 10.5571 6.27816C10.8167 6.09272 11.1041 6 11.4194 6C11.7346 6 12.0128 6.09272 12.2539 6.27816C12.5135 6.44506 12.736 6.72323 12.9215 7.11266L20.5153 24.3032C20.6637 24.6185 20.7193 24.9152 20.6822 25.1933C20.6637 25.4529 20.5617 25.6569 20.3763 25.8053C20.1908 25.9351 19.9312 26 19.5974 26C19.2265 26 18.9298 25.9073 18.7073 25.7218C18.4847 25.5178 18.29 25.2304 18.1231 24.8595L16.1482 20.242L17.3443 20.9096H5.43885L6.63496 20.242L4.65999 24.8595C4.49309 25.2675 4.30765 25.5642 4.10366 25.7497C3.89967 25.9166 3.63078 26 3.29699 26ZM11.3637 9.11544L7.02438 19.3797L6.35679 18.7956H16.4263L15.7866 19.3797L11.4194 9.11544H11.3637Z" fill="#4B504E"/>
</svg>
