<svg width="28" height="28" viewBox="0 0 28 28" fill="none" xmlns="http://www.w3.org/2000/svg">
<path d="M0 4C0 1.79086 1.79086 0 4 0H24C26.2091 0 28 1.79086 28 4V24C28 26.2091 26.2091 28 24 28H4C1.79086 28 0 26.2091 0 24V4Z" fill="#E6F5F0"/>
<path d="M17.75 14C17.75 16.0711 16.0711 17.75 14 17.75C11.9289 17.75 10.25 16.0711 10.25 14C10.25 11.9289 11.9289 10.25 14 10.25C16.0711 10.25 17.75 11.9289 17.75 14Z" stroke="#00CD82" stroke-width="1.5"/>
<path d="M14 6.5V7.625M14 20.375V21.5M19.3031 19.3035L18.5076 18.508M9.49194 9.49194L8.69645 8.69645M21.5 14H20.375M7.625 14H6.5M19.3035 8.69653L18.508 9.49203M9.49231 18.5081L8.69681 19.3036" stroke="#00CD82" stroke-width="1.5" stroke-linecap="round"/>
</svg>
