<svg width="20" height="20" viewBox="0 0 20 20" fill="currentColor" xmlns="http://www.w3.org/2000/svg">
<path d="M13.5333 6.46643C13.9982 6.93079 14.367 7.48223 14.6186 8.08922C14.8703 8.69621 14.9998 9.34685 14.9998 10.0039C14.9998 10.661 14.8703 11.3116 14.6186 11.9186C14.367 12.5256 13.9982 13.0771 13.5333 13.5414M6.46668 13.5331C6.0018 13.0687 5.633 12.5173 5.38138 11.9103C5.12976 11.3033 5.00024 10.6527 5.00024 9.99559C5.00024 9.33852 5.12976 8.68788 5.38138 8.08089C5.633 7.4739 6.0018 6.92246 6.46668 6.45809M15.8917 4.10809C17.4539 5.67082 18.3316 7.79006 18.3316 9.99976C18.3316 12.2095 17.4539 14.3287 15.8917 15.8914M4.10834 15.8914C2.54609 14.3287 1.66846 12.2095 1.66846 9.99976C1.66846 7.79006 2.54609 5.67082 4.10834 4.10809M11.6666 10C11.6666 10.9205 10.9204 11.6667 9.99996 11.6667C9.07949 11.6667 8.33329 10.9205 8.33329 10C8.33329 9.07955 9.07949 8.33335 9.99996 8.33335C10.9204 8.33335 11.6666 9.07955 11.6666 10Z" stroke="#4B5563" stroke-width="1.5" stroke-linecap="round" stroke-linejoin="round"/>
</svg>
