<svg width="28" height="28" viewBox="0 0 28 28" fill="none" xmlns="http://www.w3.org/2000/svg">
<path d="M11.6666 4.66659L14.1874 11.4791L20.9999 13.9999L14.1874 16.5208L11.6666 23.3333L9.14574 16.5208L2.33325 13.9999L9.14574 11.4791L11.6666 4.66659Z" fill="currentColor"/>
<path d="M23.3333 2.33325L23.9635 4.03637L25.6666 4.66659L23.9635 5.2968L23.3333 6.99992L22.703 5.2968L20.9999 4.66659L22.703 4.03637L23.3333 2.33325Z" fill="currentColor"/>
<path d="M23.3333 20.9999L23.9635 22.703L25.6666 23.3333L23.9635 23.9635L23.3333 25.6666L22.703 23.9635L20.9999 23.3333L22.703 22.703L23.3333 20.9999Z" fill="currentColor"/>
<path d="M11.6666 4.66659L14.1874 11.4791L20.9999 13.9999L14.1874 16.5208L11.6666 23.3333L9.14574 16.5208L2.33325 13.9999L9.14574 11.4791L11.6666 4.66659Z" stroke="currentColor" stroke-width="2" stroke-linejoin="round"/>
<path d="M23.3333 2.33325L23.9635 4.03637L25.6666 4.66659L23.9635 5.2968L23.3333 6.99992L22.703 5.2968L20.9999 4.66659L22.703 4.03637L23.3333 2.33325Z" stroke="currentColor" stroke-width="2" stroke-linejoin="round"/>
<path d="M23.3333 20.9999L23.9635 22.703L25.6666 23.3333L23.9635 23.9635L23.3333 25.6666L22.703 23.9635L20.9999 23.3333L22.703 22.703L23.3333 20.9999Z" stroke="currentColor" stroke-width="2" stroke-linejoin="round"/>
</svg>
