<svg width="20" height="20" viewBox="0 0 20 20" fill="none" xmlns="http://www.w3.org/2000/svg">
<path d="M12.4993 7.4165C12.9136 7.4165 13.2493 7.08072 13.2493 6.6665C13.2493 6.25229 12.9136 5.9165 12.4993 5.9165V7.4165ZM10.798 9.99984V9.24984V9.99984ZM10.798 13.3332V14.0832V13.3332ZM7.49935 12.5832C7.08514 12.5832 6.74935 12.919 6.74935 13.3332C6.74935 13.7474 7.08514 14.0832 7.49935 14.0832V12.5832ZM9.24935 6.6665V7.4165H10.7493V6.6665H9.24935ZM10.7493 4.99984C10.7493 4.58562 10.4136 4.24984 9.99935 4.24984C9.58514 4.24984 9.24935 4.58562 9.24935 4.99984H10.7493ZM10.7493 13.3332V12.5832H9.24935V13.3332H10.7493ZM9.24935 14.9998C9.24935 15.4141 9.58514 15.7498 9.99935 15.7498C10.4136 15.7498 10.7493 15.4141 10.7493 14.9998H9.24935ZM17.5827 9.99984C17.5827 14.188 14.1875 17.5832 9.99935 17.5832V19.0832C15.0159 19.0832 19.0827 15.0164 19.0827 9.99984H17.5827ZM9.99935 17.5832C5.81119 17.5832 2.41602 14.188 2.41602 9.99984H0.916016C0.916016 15.0164 4.98276 19.0832 9.99935 19.0832V17.5832ZM2.41602 9.99984C2.41602 5.81168 5.81119 2.4165 9.99935 2.4165V0.916504C4.98276 0.916504 0.916016 4.98325 0.916016 9.99984H2.41602ZM9.99935 2.4165C14.1875 2.4165 17.5827 5.81168 17.5827 9.99984H19.0827C19.0827 4.98325 15.0159 0.916504 9.99935 0.916504V2.4165ZM9.20074 5.9165C8.55552 5.9165 7.9337 6.16744 7.47284 6.61889L8.52251 7.69043C8.6998 7.51676 8.94348 7.4165 9.20074 7.4165V5.9165ZM7.47284 6.61889C7.01146 7.07086 6.74935 7.68718 6.74935 8.33317H8.24935C8.24935 8.0951 8.34575 7.86358 8.52251 7.69043L7.47284 6.61889ZM6.74935 8.33317C6.74935 8.97916 7.01146 9.59549 7.47284 10.0475L8.52251 8.97591C8.34575 8.80276 8.24935 8.57124 8.24935 8.33317H6.74935ZM7.47284 10.0475C7.9337 10.4989 8.55552 10.7498 9.20074 10.7498V9.24984C8.94348 9.24984 8.6998 9.14958 8.52251 8.97591L7.47284 10.0475ZM9.20074 10.7498H10.798V9.24984H9.20074V10.7498ZM10.798 10.7498C11.0552 10.7498 11.2989 10.8501 11.4762 11.0238L12.5259 9.95222C12.065 9.50077 11.4432 9.24984 10.798 9.24984V10.7498ZM11.4762 11.0238C11.653 11.1969 11.7493 11.4284 11.7493 11.6665H13.2493C13.2493 11.0205 12.9872 10.4042 12.5259 9.95222L11.4762 11.0238ZM11.7493 11.6665C11.7493 11.9046 11.653 12.1361 11.4762 12.3092L12.5259 13.3808C12.9872 12.9288 13.2493 12.3125 13.2493 11.6665H11.7493ZM11.4762 12.3092C11.2989 12.4829 11.0552 12.5832 10.798 12.5832V14.0832C11.4432 14.0832 12.065 13.8322 12.5259 13.3808L11.4762 12.3092ZM10.798 12.5832H7.49935V14.0832H10.798V12.5832ZM10.7493 6.6665V4.99984H9.24935V6.6665H10.7493ZM9.24935 13.3332V14.9998H10.7493V13.3332H9.24935ZM12.4993 5.9165H9.20074V7.4165H12.4993V5.9165Z" fill="currentColor"/>
</svg>
