<svg width="71" height="24" viewBox="0 0 71 24" fill="none" xmlns="http://www.w3.org/2000/svg">
<path d="M54.9954 15.3205C54.9954 12.7564 55.7405 10.6744 57.2308 9.0746C58.7429 7.45284 60.6386 6.64197 62.9178 6.64197C65.2409 6.64197 67.1037 7.43093 68.5063 9.00885C69.9089 10.5649 70.6102 12.5811 70.6102 15.0575C70.6102 15.4082 70.5883 15.8246 70.5445 16.3067H58.973C59.0388 17.8189 59.4333 18.9585 60.1565 19.7256C60.8797 20.4707 61.833 20.8433 63.0165 20.8433C64.8135 20.8433 66.1504 19.8571 67.027 17.8847L70.6431 19.2325C69.372 22.4102 66.8188 23.9991 62.9836 23.9991C60.551 23.9991 58.6114 23.2321 57.165 21.698C55.7186 20.142 54.9954 18.0162 54.9954 15.3205ZM59.1045 13.3481H66.5668C66.501 12.1866 66.1394 11.2771 65.482 10.6196C64.8464 9.96218 63.9917 9.63344 62.9178 9.63344C61.9097 9.63344 61.055 9.96218 60.3537 10.6196C59.6743 11.2771 59.2579 12.1866 59.1045 13.3481Z" fill="currentColor"/>
<path d="M38.3359 23.506V7.13507H42.0506C42.0068 8.14318 41.4699 9.40333 40.4398 10.9155H42.3136C42.7081 9.68823 43.3436 8.66916 44.2203 7.85828C45.0969 7.04741 46.1708 6.64197 47.4419 6.64197C49.2608 6.64197 50.6525 7.1789 51.6168 8.25276C52.5811 9.32663 53.0632 10.8169 53.0632 12.7235V23.506H49.0527V13.5125C49.0527 11.1675 48.0665 9.99505 46.094 9.99505C44.9544 9.99505 44.1107 10.3347 43.5628 11.0141C42.7519 12.0003 42.3465 13.6659 42.3465 16.0109V23.506H38.3359Z" fill="currentColor"/>
<path d="M30.9866 4.53772V0.461426H35.2601V4.53772H30.9866ZM31.1509 23.5057V7.13472H35.1286V23.5057H31.1509Z" fill="currentColor"/>
<path d="M23.8687 23.5063V0.494934H27.8792V23.5063H23.8687Z" fill="currentColor"/>
<path d="M0.00130192 11.9014C-0.0425292 8.54829 1.04229 5.72118 3.25577 3.42005C5.49115 1.097 8.29635 -0.0426131 11.6713 0.0012175C14.3231 0.0012175 16.5695 0.658685 18.4104 1.97362C20.2513 3.28855 21.4676 4.95414 22.0593 6.97037L18.0817 8.44967C16.9859 5.25 14.8381 3.65016 11.6385 3.65016C9.44691 3.65016 7.70463 4.38433 6.41161 5.85268C5.1405 7.32102 4.50495 9.32629 4.50495 11.8685C4.50495 14.4765 5.1405 16.5365 6.41161 18.0487C7.68271 19.5609 9.425 20.317 11.6385 20.317C14.8601 20.317 17.0516 18.6733 18.2131 15.386L22.0922 16.931C21.3252 19.1445 20.0541 20.8758 18.2789 22.125C16.5037 23.3742 14.2903 23.9988 11.6385 23.9988C8.17581 24.0426 5.35966 22.9139 3.19002 20.6128C1.02038 18.2898 -0.0425292 15.386 0.00130192 11.9014Z" fill="currentColor"/>
</svg>
