<svg width="44" height="44" viewBox="0 0 44 44" fill="none" xmlns="http://www.w3.org/2000/svg">
<rect width="44" height="44" rx="4.06154" fill="#002B2B"/>
<path d="M8.45079 22.0923C8.39799 18.0532 9.70477 14.6476 12.3711 11.8757C15.0639 9.07731 18.443 7.70453 22.5086 7.75733C25.7029 7.75733 28.4089 8.54931 30.6265 10.1333C32.844 11.7173 34.3092 13.7236 35.022 16.1524L30.2305 17.9344C28.9105 14.08 26.3233 12.1529 22.469 12.1529C19.829 12.1529 17.7303 13.0373 16.1727 14.806C14.6415 16.5748 13.8759 18.9904 13.8759 22.0527C13.8759 25.1943 14.6415 27.6758 16.1727 29.4974C17.7039 31.319 19.8026 32.2298 22.469 32.2298C26.3497 32.2298 28.9897 30.2498 30.3889 26.2899L35.0616 28.151C34.1376 30.8174 32.6064 32.903 30.4681 34.4078C28.3297 35.9125 25.6633 36.6649 22.469 36.6649C18.2978 36.7177 14.9055 35.3581 12.2919 32.5862C9.67837 29.7878 8.39799 26.2899 8.45079 22.0923Z" fill="white"/>
</svg>
